<?xml version="1.0" standalone="no"?><!DOCTYPE svg PUBLIC "-//W3C//DTD SVG 1.1//EN" "http://www.w3.org/Graphics/SVG/1.1/DTD/svg11.dtd"><svg t="1530269605871" class="icon" style="" viewBox="0 0 1024 1024" version="1.1" xmlns="http://www.w3.org/2000/svg" p-id="1270" xmlns:xlink="http://www.w3.org/1999/xlink" width="64" height="64"><defs><style type="text/css"></style></defs><path d="M407.67488 11.66336c-12.15488 3.13344-29.41952 12.7488-40.20224 22.35392-29.80864 26.86976-70.59456 26.86976-102.36928 0.38912l-8.43776-7.05536h-28.04736c-25.2928 0-28.43648 0.38912-33.13664 4.11648l-5.09952 3.92192V99.1232c0 60.98944 0.19456 63.73376 3.92192 67.46112 3.5328 3.5328 6.47168 3.92192 36.08576 3.92192h32.3584l12.35968-10.78272c15.104-13.33248 27.84256-18.23744 52.95104-21.17632 22.54848-2.54976 43.33568 0 52.35712 6.27712 15.29856 10.98752 30.39232 46.67392 33.34144 79.42144 0.98304 10.19904 2.74432 20.39808 4.11648 22.75328 3.13344 5.888 13.52704 11.76576 21.17632 11.76576h6.27712v209.8176h-27.25888l-0.98304 10.19904c-1.1776 10.97728-19.02592 418.87744-18.82112 431.43168v7.45472h182.56896l-1.1776-13.33248c-0.58368-7.26016-5.09952-107.07968-10.00448-221.99296-4.90496-114.92352-9.216-210.03264-9.60512-211.4048-0.58368-1.56672-4.90496-2.3552-12.7488-2.3552h-11.76576V258.74432h10.3936c11.18208 0 20.59264-4.51584 25.69216-12.15488 1.96608-3.13344 3.72736-16.2816 5.888-40.78592 3.328-41.76896 6.8608-54.90688 18.04288-64.52224 6.08256-5.48864 8.23296-6.08256 19.02592-6.08256 21.57568 0.19456 49.02912 12.35968 78.83776 35.10272 29.22496 22.35392 71.96672 67.46112 101.96992 107.07968 7.24992 9.60512 13.9264 18.432 14.8992 19.6096 1.1776 0.98304 5.888-2.3552 12.55424-8.82688l10.78272-10.58816-8.0384-14.70464c-29.22496-54.3232-82.95424-121.38496-132.17792-164.92544-44.31872-39.02464-77.66016-60.60032-106.87488-68.44416C542.98624 17.54112 428.8512 6.17472 407.67488 11.66336zM398.25408 933.74464c0.19456 1.37216 4.31104 19.80416 9.41056 40.78592l9.41056 38.23616 71.77216 0.58368 71.5776 0.38912 1.1776-5.29408c0.58368-3.13344 5.09952-21.57568 9.80992-41.37984l8.63232-35.69664h-90.79808c-71.5776 0.03072-90.99264 0.6144-90.99264 2.37568z" p-id="1271"></path></svg>